{"glyphs":{"0":{"ha":1361,"x_min":0,"x_max":1222,"o":"m 1222 836 q 1104 983 1211 928 q 925 1028 1018 1028 l 0 1028 l 0 190 q 118 44 10 100 q 297 0 206 0 l 1222 0 l 1222 836 m 969 108 l 382 108 q 290 138 329 108 q 251 218 251 167 l 251 918 l 839 918 q 931 890 893 918 q 969 810 969 863 l 969 108 z "},"1":{"ha":400,"x_min":0,"x_max":261,"o":"m 261 1029 l 0 974 l 0 0 l 261 0 l 261 1029 z "},"2":{"ha":1347,"x_min":0,"x_max":1208,"o":"m 49 1025 l 0 915 l 949 915 l 949 700 q 846 613 949 642 q 694 592 774 592 l 190 592 q 62 540 115 592 q 0 413 8 488 l 0 0 l 1208 0 l 1208 110 l 254 110 l 254 342 q 324 464 254 432 q 439 482 363 482 l 904 482 q 1101 518 1021 482 q 1208 669 1208 567 l 1208 1025 l 49 1025 z "},"3":{"ha":1221,"x_min":0,"x_max":1082,"o":"m 1082 642 l 1082 928 q 842 1029 1036 1029 l 49 1029 l 0 919 l 721 919 q 826 854 813 904 l 826 669 q 787 593 826 619 q 696 567 747 567 l 49 567 l 0 463 l 696 463 q 787 435 747 463 q 826 358 826 407 l 826 174 q 721 114 811 124 l 49 114 l 0 0 l 842 0 q 1082 101 1036 0 l 1082 388 q 983 514 1074 465 q 1082 642 1074 564 z "},"4":{"ha":1367,"x_min":0,"x_max":1228,"o":"m 968 1029 l 968 390 l 386 390 q 296 418 333 390 q 253 500 253 449 l 253 1029 l 0 1029 l 0 469 q 119 325 10 378 q 301 282 208 282 l 968 282 l 968 0 l 1228 0 l 1228 1029 l 968 1029 z "},"5":{"ha":1363,"x_min":0,"x_max":1225,"o":"m 1225 1024 l 1225 915 l 260 915 l 260 700 q 389 592 260 592 l 1033 592 q 1162 540 1108 592 q 1224 413 1215 488 l 1224 0 l 0 0 l 0 110 l 969 110 l 969 342 q 901 464 969 432 q 785 482 863 482 l 304 482 q 107 518 188 482 q 0 669 0 567 l 0 1024 l 1225 1024 z "},"6":{"ha":1361,"x_min":0,"x_max":1222,"o":"m 928 596 l 249 596 l 249 813 q 399 919 278 919 l 1221 919 l 1221 1029 l 321 1029 q 133 985 228 1029 q 0 839 17 929 l 0 192 q 118 44 10 100 q 297 0 206 0 l 1222 0 l 1222 407 q 1106 553 1213 499 q 928 596 1021 596 m 968 110 l 383 110 q 292 136 329 110 q 249 218 249 167 l 249 486 l 843 486 q 932 458 896 486 q 968 378 968 429 l 968 110 z "},"7":{"ha":1272,"x_min":-89,"x_max":1133,"o":"m 885 0 l 885 821 q 733 928 856 928 l -89 928 l -89 1038 l 811 1038 q 1000 993 904 1038 q 1133 847 1117 939 l 1133 0 l 885 0 z "},"8":{"ha":1361,"x_min":0,"x_max":1222,"o":"m 1222 838 q 1104 983 1211 928 q 925 1029 1015 1029 l 0 1029 l 0 674 q 82 550 8 600 l 0 550 l 0 192 q 118 44 10 100 q 297 0 206 0 l 1222 0 l 1222 407 q 1135 536 1213 485 l 1222 536 l 1222 838 m 968 110 l 382 110 q 292 136 328 110 q 250 218 250 167 l 250 486 l 843 486 q 932 458 896 486 q 968 378 968 429 l 968 110 m 379 596 q 290 624 326 596 q 254 704 254 653 l 254 919 l 839 919 q 929 892 892 919 q 972 810 972 861 l 972 596 l 379 596 z "},"9":{"ha":1361,"x_min":0,"x_max":1222,"o":"m 294 433 l 974 433 l 974 217 q 824 110 944 110 l 1 110 l 1 0 l 901 0 q 1089 44 994 0 q 1222 189 1206 100 l 1222 838 q 1104 983 1213 928 q 925 1029 1014 1029 l 0 1029 l 0 621 q 117 476 10 529 q 294 433 203 433 m 254 919 l 839 919 q 931 892 893 919 q 974 810 974 861 l 974 543 l 379 543 q 290 572 326 543 q 254 651 254 600 l 254 919 z "}," ":{"ha":694,"x_min":0,"x_max":0,"o":""},"!":{"ha":400,"x_min":0,"x_max":261,"o":"m 0 1024 l 0 261 l 261 317 l 261 1024 l 0 1024 m 0 165 l 0 0 l 261 56 l 261 221 l 0 165 z "},"\"":{"ha":563,"x_min":0,"x_max":424,"o":"m 51 1033 l 51 944 l 0 744 l 46 744 l 208 944 l 208 1033 l 51 1033 m 265 1033 l 265 944 l 215 744 l 260 744 l 424 944 l 424 1033 l 265 1033 z "},"#":{"ha":1132,"x_min":0,"x_max":993,"o":"m 956 722 l 993 831 l 778 831 l 778 1014 l 611 976 l 611 831 l 382 831 l 382 1014 l 215 976 l 215 831 l 36 832 l 0 722 l 215 722 l 215 569 l 36 571 l 0 461 l 215 461 l 215 242 l 382 279 l 382 461 l 611 461 l 611 242 l 778 279 l 778 461 l 956 461 l 993 569 l 778 569 l 778 722 l 956 722 m 611 569 l 382 569 l 382 722 l 611 722 l 611 569 z "},"$":{"ha":1360,"x_min":0,"x_max":1221,"o":"m 1035 586 l 686 586 l 686 781 l 1172 781 l 1221 890 l 686 890 l 686 1028 l 535 1028 l 535 890 l 304 890 q 122 846 211 890 q 0 699 13 792 l 0 476 l 535 476 l 535 268 l 88 268 l 0 143 l 535 143 l 535 6 l 686 31 l 686 143 l 972 143 q 1217 282 1181 143 l 1217 457 q 1035 586 1217 586 m 254 586 l 254 672 q 296 754 254 724 q 388 781 333 781 l 535 781 l 535 586 l 254 586 m 961 328 q 853 268 947 268 l 686 268 l 686 476 l 846 476 q 928 471 910 476 q 961 410 961 457 l 961 328 z "},"%":{"ha":1407,"x_min":0,"x_max":1268,"o":"m 0 778 l 0 546 l 324 546 q 436 574 383 546 q 511 667 504 610 l 511 896 l 186 896 q 74 869 126 896 q 0 778 7 836 m 160 758 q 183 808 160 790 q 240 826 207 826 l 353 826 l 353 683 q 328 633 353 651 q 269 615 303 615 l 160 615 l 160 758 m 757 375 l 757 143 l 1081 143 q 1193 171 1139 143 q 1268 264 1261 206 l 1268 493 l 943 493 q 831 467 883 493 q 757 375 763 433 m 917 356 q 940 406 917 388 q 996 424 963 424 l 1110 424 l 1110 281 q 1085 231 1110 249 q 1026 213 1060 213 l 917 213 l 917 356 m 551 0 l 892 1028 l 706 1028 l 365 0 l 551 0 z "},"&":{"ha":1281,"x_min":0,"x_max":1190,"o":"m 1190 279 l 1079 279 l 1079 426 l 825 371 l 825 279 l 757 279 q 650 331 701 290 l 447 490 l 1079 490 l 1079 844 q 963 989 1068 936 q 785 1032 876 1032 l 0 1032 l 0 682 q 35 600 6 638 l 0 600 l 0 192 q 118 44 10 100 q 297 0 206 0 l 1079 0 l 1079 171 l 1142 171 l 1190 279 m 250 924 l 699 924 q 788 894 751 924 q 825 814 825 865 l 825 600 l 382 600 q 292 626 328 600 q 250 708 250 657 l 250 924 m 825 110 l 382 110 q 292 136 328 110 q 250 218 250 167 l 250 490 l 258 490 l 563 247 q 739 171 658 171 l 825 171 l 825 110 z "},"'":{"ha":347,"x_min":0,"x_max":208,"o":"m 51 1033 l 51 944 l 0 744 l 46 744 l 208 944 l 208 1033 l 51 1033 z "},"(":{"ha":593,"x_min":0,"x_max":517,"o":"m 517 110 l 381 110 q 293 138 328 110 q 254 218 254 167 l 254 810 q 296 892 254 861 q 386 919 333 919 l 454 919 l 517 1028 l 301 1028 q 125 985 211 1028 q 0 840 21 932 l 0 192 q 117 44 10 100 q 294 0 203 0 l 454 0 l 517 110 z "},")":{"ha":567,"x_min":-89,"x_max":428,"o":"m -89 919 l 47 919 q 137 890 100 919 q 174 810 174 861 l 174 218 q 132 136 174 167 q 42 110 96 110 l -26 110 l -89 0 l 126 0 q 301 43 215 0 q 428 188 407 96 l 428 838 q 311 983 417 929 q 132 1028 224 1028 l -26 1028 l -89 919 z "},"*":{"ha":740,"x_min":-67,"x_max":638,"o":"m 638 731 l 418 731 l 549 860 l 496 964 l 340 808 l 340 992 l 232 1028 l 231 808 l 101 939 l -1 886 l 154 731 l -31 731 l -67 621 l 153 621 l 24 492 l 75 388 l 231 543 l 231 360 l 340 324 l 340 543 l 469 414 l 574 465 l 418 621 l 601 621 l 638 731 z "},"+":{"ha":901,"x_min":0,"x_max":800,"o":"m 800 568 l 531 568 l 531 854 l 269 854 l 269 569 l 36 569 l 0 458 l 269 458 l 269 174 l 531 174 l 531 458 l 763 458 l 800 568 z "},",":{"ha":344,"x_min":0,"x_max":206,"o":"m 51 108 l 51 0 l 0 -199 l 46 -199 l 206 0 l 206 108 l 51 108 z "},"-":{"ha":807,"x_min":0,"x_max":704,"o":"m 668 486 l 704 596 l 36 596 l 0 486 l 668 486 z "},"‐":{"ha":807,"x_min":0,"x_max":704,"o":"m 668 486 l 704 596 l 36 596 l 0 486 l 668 486 z "},".":{"ha":293,"x_min":0,"x_max":154,"o":"m 154 110 l 0 110 l 0 0 l 154 0 l 154 110 z "},"/":{"ha":549,"x_min":-67,"x_max":460,"o":"m 119 0 l 460 1028 l 272 1028 l -67 0 l 119 0 z "},":":{"ha":293,"x_min":0,"x_max":154,"o":"m 154 596 l 0 596 l 0 486 l 154 486 l 154 596 m 154 343 l 0 343 l 0 233 l 154 233 l 154 343 z "},";":{"ha":344,"x_min":0,"x_max":206,"o":"m 206 596 l 51 596 l 51 486 l 206 486 l 206 596 m 51 369 l 51 279 l 0 81 l 46 81 l 206 279 l 206 369 l 51 369 z "},"<":{"ha":631,"x_min":0,"x_max":546,"o":"m 546 17 l 250 383 l 546 751 l 296 751 l 0 383 l 296 17 l 546 17 z "},"=":{"ha":807,"x_min":0,"x_max":704,"o":"m 668 572 l 704 682 l 36 682 l 0 572 l 668 572 m 668 346 l 704 456 l 36 457 l 0 346 l 668 346 z "},">":{"ha":631,"x_min":0,"x_max":546,"o":"m 0 17 l 296 383 l 0 751 l 250 751 l 546 383 l 250 17 l 0 17 z "},"?":{"ha":1093,"x_min":-267,"x_max":954,"o":"m 38 164 l 38 -1 l 296 54 l 296 219 l 38 164 m 649 1033 l -267 1033 l -218 925 l 565 925 q 657 897 619 925 q 700 815 700 867 l 700 642 l 219 642 q 39 513 39 642 l 39 267 l 294 315 l 294 464 q 328 525 294 513 q 408 532 346 532 l 954 532 l 954 843 q 831 989 942 933 q 649 1033 742 1033 z "},"@":{"ha":1525,"x_min":0,"x_max":1386,"o":"m 607 600 q 417 471 431 600 l 417 254 q 654 114 450 114 l 1386 114 l 1386 669 q 1267 817 1375 761 q 1088 861 1179 861 l 301 861 q 125 818 211 861 q 0 674 21 765 l 0 88 q 117 -60 10 -4 q 294 -104 203 -104 l 1349 -104 l 1247 6 l 381 6 q 293 33 328 6 q 254 114 254 63 l 254 643 q 296 725 254 694 q 386 751 332 751 l 1001 751 q 1094 725 1056 751 q 1139 643 1139 694 l 1139 600 l 607 600 m 1139 239 l 775 239 q 674 299 688 239 l 674 424 q 710 485 674 471 q 794 490 729 490 l 1139 490 l 1139 239 z "},"A":{"ha":1354,"x_min":0,"x_max":1676,"o":"m 1576 -250 l 1343 -250 q 1253 -221 1290 -250 q 1215 -140 1215 -192 l 1215 556 q 1097 701 1206 646 q 917 746 1010 746 l 0 746 l 0 638 l 832 638 q 924 610 885 638 q 968 528 968 579 l 968 486 l 190 486 q 0 357 14 486 l 0 139 q 236 0 32 0 l 968 0 l 968 -168 q 1076 -314 968 -258 q 1257 -358 1164 -358 l 1676 -358 l 1576 -250 m 357 124 q 256 183 269 132 l 256 308 q 293 369 256 357 q 376 376 313 376 l 968 376 l 968 124 l 357 124 z "},"B":{"ha":1368,"x_min":-457,"x_max":1229,"o":"m 929 747 l 260 747 l 260 839 q 142 985 250 929 q -37 1031 51 1031 l -457 1031 l -357 921 l -122 921 q -35 892 -69 921 q 0 811 0 863 l 0 0 l 989 0 q 1229 106 1183 0 l 1229 558 q 1110 704 1219 650 q 929 747 1022 747 m 974 182 q 868 122 960 122 l 260 122 l 260 638 l 843 638 q 934 608 894 638 q 974 529 974 579 l 974 182 z "},"C":{"ha":1360,"x_min":0,"x_max":1221,"o":"m 383 108 q 293 136 331 108 q 250 218 250 167 l 250 638 l 842 638 q 933 608 893 638 q 972 529 972 579 l 972 453 l 1221 453 l 1221 558 q 1106 704 1211 650 q 928 747 1021 747 l 0 747 l 0 192 q 118 44 10 100 q 297 0 206 0 l 1221 0 l 1221 108 l 383 108 z "},"D":{"ha":1349,"x_min":0,"x_max":1665,"o":"m 1246 1031 q 1052 976 1146 1031 q 950 839 958 922 l 950 747 l 286 747 q 113 704 194 747 q 0 558 11 651 l 0 106 q 222 0 44 0 l 1210 0 l 1210 817 l 1208 817 q 1246 894 1207 865 q 1331 921 1281 921 l 1565 921 l 1665 1031 l 1246 1031 m 950 122 l 343 122 q 239 182 251 122 l 239 529 q 281 610 239 579 q 371 638 318 638 l 950 638 l 950 122 z "},"E":{"ha":1318,"x_min":0,"x_max":1211,"o":"m 236 267 l 1025 267 q 1144 303 1104 267 q 1179 400 1179 343 l 1179 747 l 283 747 q 111 706 190 747 q 0 563 11 653 l 0 106 q 218 0 44 0 l 1211 0 l 1210 122 l 340 122 q 236 182 250 131 l 236 267 m 368 638 l 963 638 l 963 465 q 938 396 963 426 q 843 376 910 376 l 236 376 l 236 529 q 278 610 236 579 q 368 638 315 638 z "},"F":{"ha":689,"x_min":-457,"x_max":753,"o":"m 389 918 l 753 918 l 753 1028 l 304 1028 q 122 985 211 1028 q 0 840 11 931 l 0 747 l -322 747 l -322 638 l 0 638 l 0 -140 q -35 -221 0 -192 q -122 -250 -69 -250 l -357 -250 l -457 -358 l -37 -358 q 142 -314 56 -358 q 258 -167 249 -258 l 260 638 l 683 638 l 683 747 l 260 747 q 260 813 258 782 q 301 892 261 863 q 389 918 338 918 z "},"G":{"ha":1335,"x_min":0,"x_max":1653,"o":"m 1233 1028 q 1060 983 1143 1028 q 949 838 958 929 l 949 747 l 319 747 q 132 703 226 747 q 0 558 17 649 l 0 106 q 211 0 38 0 l 949 0 l 949 -144 q 797 -250 919 -250 l 108 -250 l 19 -360 l 875 -360 q 1063 -317 971 -360 q 1196 -171 1179 -262 l 1196 810 q 1231 890 1196 861 q 1318 919 1267 919 l 1551 919 l 1653 1028 l 1233 1028 m 949 122 l 339 122 q 249 182 258 131 l 249 528 q 301 608 254 579 q 397 636 343 636 l 949 636 l 949 122 z "},"H":{"ha":1367,"x_min":0,"x_max":1689,"o":"m 1588 -250 l 1354 -250 q 1267 -222 1301 -250 q 1228 -140 1228 -192 l 1228 558 q 1108 704 1218 650 q 926 747 1021 747 l 260 747 l 260 1028 l 0 972 l 0 0 l 260 0 l 260 638 l 842 638 q 934 608 894 638 q 974 528 974 579 l 974 -168 q 1092 -314 985 -258 q 1269 -358 1178 -358 l 1689 -358 l 1588 -250 z "},"I":{"ha":400,"x_min":0,"x_max":722,"o":"m 261 865 l 261 1029 l 0 974 l 0 810 l 261 865 m 621 -250 l 388 -250 q 300 -222 335 -250 q 261 -140 261 -192 l 261 778 l 0 722 l 0 -168 q 125 -314 19 -260 q 303 -358 213 -358 l 722 -358 l 621 -250 z "},"J":{"ha":400,"x_min":-490,"x_max":261,"o":"m 261 864 l 261 1028 l 0 974 l 0 808 l 261 864 m -44 -360 q 139 -317 50 -360 q 261 -172 250 -262 l 261 776 l 0 719 l 0 -144 q -40 -222 0 -193 q -129 -250 -79 -250 l -435 -250 l -490 -360 l -44 -360 z "},"K":{"ha":1368,"x_min":0,"x_max":1690,"o":"m 1589 -250 l 1356 -250 q 1268 -222 1303 -250 q 1229 -140 1229 -192 l 1229 299 q 1117 439 1219 385 q 1207 564 1197 490 l 1207 733 l 949 733 l 949 594 q 913 516 949 546 q 826 486 876 486 l 260 486 l 260 1028 l 0 972 l 0 0 l 260 0 l 260 376 l 857 376 q 938 347 901 376 q 975 268 975 317 l 975 -167 q 1092 -314 986 -260 q 1269 -358 1178 -358 l 1690 -358 l 1589 -250 z "},"L":{"ha":390,"x_min":0,"x_max":740,"o":"m 251 1029 l 0 974 l 0 -168 q 118 -314 10 -258 q 296 -358 204 -358 l 740 -358 l 640 -250 l 382 -250 q 290 -221 329 -250 q 251 -140 251 -192 l 251 1029 z "},"M":{"ha":1751,"x_min":0,"x_max":2074,"o":"m 1974 -250 l 1740 -250 q 1650 -222 1688 -250 q 1613 -142 1613 -193 l 1613 558 q 1493 704 1603 650 q 1311 747 1406 747 l 0 747 l 0 0 l 258 0 l 258 638 l 679 638 l 679 0 l 938 0 l 938 638 l 1226 638 q 1319 608 1278 638 q 1360 529 1360 579 l 1358 -168 q 1476 -315 1369 -260 q 1654 -360 1563 -360 l 2074 -360 l 1974 -250 z "},"N":{"ha":1358,"x_min":0,"x_max":1685,"o":"m 1583 -251 l 1350 -251 q 1258 -222 1297 -251 q 1219 -142 1219 -193 l 1219 558 q 1085 704 1210 649 q 889 747 988 747 l 0 747 l 0 0 l 250 0 l 250 638 l 804 638 q 910 611 860 638 q 969 531 969 581 l 969 -169 q 1086 -315 979 -260 q 1265 -360 1172 -360 l 1685 -360 l 1583 -251 z "},"O":{"ha":1361,"x_min":0,"x_max":1222,"o":"m 928 747 l 0 747 l 0 192 q 118 44 10 100 q 297 0 206 0 l 1222 0 l 1222 558 q 1106 704 1211 650 q 928 747 1021 747 m 968 110 l 382 110 q 292 136 328 110 q 250 218 250 167 l 250 638 l 842 638 q 929 611 896 638 q 968 529 968 581 l 968 110 z "},"P":{"ha":1369,"x_min":-394,"x_max":1231,"o":"m 929 747 q 1110 704 1022 747 q 1231 558 1221 650 l 1231 106 q 990 0 1183 0 l 251 0 l 251 -217 q 28 -360 228 -360 l -394 -360 l -306 -253 l -125 -253 q -38 -228 -67 -253 q 0 -143 -10 -203 l 0 747 l 929 747 m 258 638 l 258 122 l 869 122 q 975 182 961 122 l 975 528 q 936 608 975 579 q 844 638 897 638 l 258 638 z "},"Q":{"ha":1335,"x_min":0,"x_max":1608,"o":"m 1329 -251 q 1239 -224 1276 -251 q 1196 -142 1196 -193 l 1196 747 l 319 747 q 133 704 226 747 q 0 558 17 650 l 0 106 q 179 0 22 0 l 953 0 l 953 -169 q 1063 -315 953 -260 q 1244 -360 1150 -360 l 1608 -360 l 1507 -251 l 1329 -251 m 957 122 l 340 122 q 250 182 258 131 l 250 528 q 303 610 250 575 q 399 638 346 638 l 957 638 l 957 122 z "},"R":{"ha":1074,"x_min":-418,"x_max":1046,"o":"m 746 749 l 44 749 l 44 -140 q 7 -221 44 -192 q -83 -250 -31 -250 l -317 -250 l -418 -358 l 3 -358 q 181 -314 94 -358 q 297 -168 288 -258 l 297 639 l 660 639 q 753 610 713 639 q 794 531 794 581 l 794 454 l 1046 454 l 1046 560 q 926 706 1036 651 q 746 749 839 749 z "},"S":{"ha":1354,"x_min":0,"x_max":1219,"o":"m 1033 444 l 254 444 l 254 529 q 296 611 254 581 q 388 638 333 638 l 1171 638 l 1219 747 l 304 747 q 122 703 211 747 q 0 556 13 649 l 0 335 l 844 335 q 926 328 908 335 q 960 267 960 315 l 960 -175 q 851 -235 946 -235 l 104 -235 l 0 -358 l 971 -358 q 1215 -219 1179 -358 l 1215 315 q 1033 444 1215 444 z "},"T":{"ha":1175,"x_min":-67,"x_max":1271,"o":"m 394 642 l 1125 642 l 1125 749 l 394 749 l 394 1032 l 143 976 l 143 749 l -67 749 l -67 642 l 143 642 l 143 -168 q 261 -314 154 -258 q 439 -358 347 -358 l 1271 -358 l 1169 -250 l 525 -250 q 433 -221 472 -250 q 394 -140 394 -192 l 394 642 z "},"U":{"ha":1361,"x_min":-465,"x_max":1222,"o":"m 971 747 l 971 110 l 382 110 q 292 136 328 110 q 250 218 250 167 l 250 835 q 133 981 240 925 q -46 1026 44 1026 l -465 1026 l -365 917 l -131 917 q -39 888 -78 917 q 0 807 0 858 l 0 192 q 118 44 10 100 q 297 0 206 0 l 1222 0 l 1222 747 l 971 747 z "},"V":{"ha":1360,"x_min":-467,"x_max":1221,"o":"m 968 747 l 968 110 l 639 110 l 249 376 l 249 835 q 132 981 239 925 q -47 1026 43 1026 l -467 1026 l -367 917 l -132 917 q -43 889 -79 917 q -1 807 -1 858 l 0 376 l 557 0 l 1221 0 l 1221 747 l 968 747 z "},"W":{"ha":1751,"x_min":-462,"x_max":1613,"o":"m 1356 747 l 1356 110 l 933 110 l 933 747 l 675 747 l 675 110 l 386 110 q 294 136 332 110 q 253 218 253 167 l 253 835 q 136 981 243 925 q -42 1026 47 1026 l -462 1026 l -361 917 l -128 917 q -35 888 -74 917 q 3 807 3 858 l 0 188 q 119 43 10 97 q 301 0 207 0 l 1613 0 l 1613 747 l 1356 747 z "},"X":{"ha":1335,"x_min":0,"x_max":1660,"o":"m 1558 -254 l 1325 -254 q 1236 -226 1272 -254 q 1196 -144 1196 -196 l 1196 301 q 1132 406 1188 374 q 1196 513 1190 457 l 1196 747 l 943 747 l 943 539 q 899 457 943 488 q 807 431 861 431 l 389 431 q 297 457 335 431 q 253 539 253 488 l 253 747 l 0 747 l 0 513 q 65 406 7 457 q 0 301 7 372 l 0 0 l 253 0 l 253 253 q 281 310 253 296 q 347 319 300 319 l 849 319 q 915 310 897 319 q 944 253 944 296 l 944 -172 q 1061 -318 954 -262 q 1240 -364 1150 -364 l 1660 -364 l 1558 -254 z "},"Y":{"ha":1340,"x_min":-3,"x_max":1201,"o":"m 953 749 l 953 124 l 342 124 q 251 183 263 124 l 251 749 l 1 749 l 1 106 q 214 0 39 0 l 953 0 l 953 -144 q 801 -251 924 -251 l 111 -251 l -3 -361 l 879 -361 q 1068 -317 972 -361 q 1201 -171 1185 -262 l 1201 749 l 953 749 z "},"Z":{"ha":1221,"x_min":0,"x_max":1169,"o":"m 0 746 l 0 638 l 822 638 l 822 536 q 784 456 822 485 q 693 428 746 428 l 190 428 q 0 300 14 428 l 0 -365 l 1169 -365 l 1082 -256 l 254 -256 l 254 251 q 322 313 254 299 q 439 318 351 318 l 778 318 q 960 361 871 318 q 1082 506 1069 414 l 1082 746 l 0 746 z "},"[":{"ha":586,"x_min":0,"x_max":517,"o":"m 254 218 l 254 919 l 454 919 l 517 1029 l 0 1029 l 0 192 q 117 44 10 100 q 294 0 203 0 l 454 0 l 517 110 l 381 110 q 293 138 328 110 q 254 218 254 167 z "},"\\":{"ha":617,"x_min":0,"x_max":526,"o":"m 186 1028 l 526 0 l 339 0 l 0 1028 l 186 1028 z "},"]":{"ha":544,"x_min":-111,"x_max":406,"o":"m 151 810 l 151 110 l -49 110 l -111 0 l 406 0 l 406 838 q 289 983 394 929 q 110 1028 201 1028 l -49 1028 l -111 919 l 25 919 q 115 890 78 919 q 151 810 151 861 z "},"^":{"ha":696,"x_min":0,"x_max":557,"o":"m 186 629 l 279 828 l 371 629 l 557 629 l 372 1028 l 186 1028 l 0 629 l 186 629 z "},"_":{"ha":1008,"x_min":0,"x_max":907,"o":"m 869 0 l 907 110 l 36 110 l 0 0 l 869 0 z "},"`":{"ha":321,"x_min":0,"x_max":206,"o":"m 154 1024 l 154 915 l 206 715 l 160 715 l 0 915 l 0 1024 l 154 1024 z "},"a":{"ha":1356,"x_min":0,"x_max":1217,"o":"m 918 747 l 0 747 l 0 638 l 832 638 q 927 608 886 638 q 968 528 968 579 l 968 486 l 190 486 q 0 357 14 486 l 0 139 q 236 0 32 0 l 1217 0 l 1217 556 q 1097 701 1206 646 q 918 747 1007 747 m 357 124 q 256 183 269 132 l 256 308 q 292 369 256 357 q 376 376 311 376 l 968 376 l 968 124 l 357 124 z "},"b":{"ha":1369,"x_min":1,"x_max":1231,"o":"m 929 747 l 263 747 l 263 1028 l 1 974 l 1 0 l 990 0 q 1231 106 1183 0 l 1231 558 q 1111 704 1221 650 q 929 747 1024 747 m 975 529 l 975 183 q 869 122 961 122 l 263 122 l 263 638 l 844 638 q 936 609 897 638 q 975 529 975 581 z "},"c":{"ha":1360,"x_min":0,"x_max":1221,"o":"m 383 108 q 293 136 331 108 q 250 218 250 167 l 250 638 l 842 638 q 933 608 893 638 q 972 529 972 579 l 972 453 l 1221 453 l 1221 558 q 1106 704 1211 650 q 928 747 1021 747 l 0 747 l 0 192 q 118 44 10 100 q 297 0 206 0 l 1221 0 l 1221 108 l 383 108 z "},"d":{"ha":1349,"x_min":0,"x_max":1210,"o":"m 1210 1028 l 950 972 l 950 747 l 286 747 q 113 704 194 747 q 0 558 11 651 l 0 106 q 222 0 44 0 l 1210 0 l 1210 1028 m 343 122 q 239 182 251 122 l 239 529 q 281 610 239 579 q 371 638 318 638 l 950 638 l 950 122 l 343 122 z "},"e":{"ha":1318,"x_min":0,"x_max":1211,"o":"m 236 267 l 1025 267 q 1144 303 1104 267 q 1179 400 1179 343 l 1179 747 l 283 747 q 111 706 190 747 q 0 563 11 653 l 0 106 q 218 0 44 0 l 1211 0 l 1210 122 l 340 122 q 236 182 250 131 l 236 267 m 368 638 l 963 638 l 963 465 q 938 396 963 426 q 843 376 910 376 l 236 376 l 236 529 q 278 610 236 579 q 368 638 315 638 z "},"f":{"ha":942,"x_min":-111,"x_max":965,"o":"m 603 919 l 965 919 l 965 1028 l 518 1028 q 335 985 425 1028 q 213 840 224 932 l 213 747 l -111 747 l -111 638 l 213 638 l 213 0 l 472 0 l 472 638 l 896 638 l 896 747 l 472 747 l 472 813 q 515 892 472 860 q 603 919 553 919 z "},"g":{"ha":1331,"x_min":0,"x_max":1192,"o":"m 318 744 q 132 701 224 744 q 0 557 17 647 l 0 106 q 210 0 38 0 l 946 0 l 946 -144 q 794 -250 917 -250 l 108 -250 l 108 -358 l 872 -358 q 1060 -315 967 -358 q 1192 -171 1176 -261 l 1192 744 l 318 744 m 946 122 l 339 122 q 249 182 258 131 l 249 526 q 300 607 249 576 q 397 635 344 635 l 946 635 l 946 122 z "},"h":{"ha":1367,"x_min":0,"x_max":1228,"o":"m 261 0 l 261 638 l 842 638 q 934 608 893 638 q 975 529 975 579 l 975 0 l 1228 0 l 1228 558 q 1108 704 1218 650 q 928 747 1021 747 l 261 747 l 261 1028 l 0 974 l 0 0 l 261 0 z "},"i":{"ha":400,"x_min":0,"x_max":261,"o":"m 261 0 l 261 778 l 0 722 l 0 0 l 261 0 m 261 874 l 261 1039 l 0 983 l 0 818 l 261 874 z "},"j":{"ha":399,"x_min":-489,"x_max":260,"o":"m 260 874 l 260 1036 l 0 982 l 0 818 l 260 874 m -44 -356 q 139 -312 49 -356 q 260 -168 250 -260 l 260 778 l 0 721 l 0 -140 q -39 -219 0 -190 q -128 -247 -78 -247 l -489 -247 l -489 -356 l -44 -356 z "},"k":{"ha":1347,"x_min":0,"x_max":1229,"o":"m 949 733 l 949 594 q 913 517 949 547 q 828 486 876 486 l 260 486 l 260 1028 l 0 974 l 0 0 l 260 0 l 260 376 l 857 376 q 939 346 901 376 q 976 268 976 315 l 976 1 l 1229 1 l 1229 299 q 1117 439 1219 385 q 1208 565 1197 490 l 1208 733 l 949 733 z "},"l":{"ha":707,"x_min":0,"x_max":742,"o":"m 251 1029 l 0 974 l 0 192 q 118 44 10 100 q 296 0 206 0 l 742 0 l 640 110 l 382 110 q 290 138 329 110 q 251 218 251 167 l 251 1029 z "},"m":{"ha":1751,"x_min":0,"x_max":1613,"o":"m 1313 747 l 0 747 l 0 0 l 258 0 l 258 638 l 679 638 l 679 0 l 939 0 l 939 638 l 1226 638 q 1318 611 1281 638 q 1360 529 1360 581 l 1360 0 l 1613 0 l 1613 558 q 1493 704 1603 650 q 1313 747 1406 747 z "},"n":{"ha":1368,"x_min":0,"x_max":1229,"o":"m 928 747 l 0 747 l 0 0 l 258 0 l 258 638 l 842 638 q 935 610 896 638 q 975 529 975 582 l 975 0 l 1229 0 l 1229 558 q 1108 704 1218 650 q 928 747 1021 747 z "},"o":{"ha":1361,"x_min":0,"x_max":1222,"o":"m 928 747 l 0 747 l 0 192 q 118 44 10 100 q 297 0 206 0 l 1222 0 l 1222 558 q 1106 704 1211 650 q 928 747 1021 747 m 968 110 l 382 110 q 292 136 328 110 q 250 218 250 167 l 250 638 l 842 638 q 929 611 896 638 q 968 529 968 581 l 968 110 z "},"p":{"ha":1365,"x_min":0,"x_max":1226,"o":"m 926 744 l 0 744 l 0 -360 l 250 -360 l 250 0 l 986 0 q 1226 106 1179 0 l 1226 557 q 1106 701 1215 647 q 926 744 1018 744 m 971 182 q 865 122 957 122 l 257 122 l 257 635 l 840 635 q 931 608 893 635 q 971 526 971 578 l 971 182 z "},"q":{"ha":1331,"x_min":0,"x_max":1192,"o":"m 949 -360 l 1192 -360 l 1192 744 l 318 744 q 132 701 224 744 q 0 557 17 647 l 0 106 q 178 0 22 0 l 949 0 l 949 -360 m 339 122 q 249 182 258 131 l 249 526 q 301 608 249 575 q 397 635 343 635 l 954 635 l 954 122 l 339 122 z "},"r":{"ha":1143,"x_min":0,"x_max":1004,"o":"m 703 747 l 0 747 l 0 0 l 254 0 l 254 638 l 618 638 q 710 611 672 638 q 751 529 751 581 l 751 453 l 1004 453 l 1004 558 q 883 704 993 650 q 703 747 796 747 z "},"s":{"ha":1356,"x_min":0,"x_max":1221,"o":"m 1035 443 l 254 443 l 254 528 q 297 610 254 579 q 388 638 335 638 l 1172 638 l 1221 747 l 304 747 q 122 703 211 747 q 0 556 13 649 l 0 333 l 846 333 q 928 326 910 333 q 961 265 961 314 l 961 183 q 853 124 947 124 l 0 124 l 0 0 l 972 0 q 1217 139 1181 0 l 1217 314 q 1035 443 1217 443 z "},"t":{"ha":1221,"x_min":-111,"x_max":1226,"o":"m 350 638 l 1081 638 l 1081 744 l 350 744 l 350 1029 l 99 974 l 99 744 l -111 744 l -111 638 l 99 638 l 99 192 q 217 44 110 100 q 394 0 303 0 l 1226 0 l 1126 110 l 481 110 q 389 138 428 110 q 350 218 350 167 l 350 638 z "},"u":{"ha":1361,"x_min":0,"x_max":1222,"o":"m 971 747 l 971 110 l 382 110 q 292 136 328 110 q 250 218 250 167 l 250 747 l 0 747 l 0 192 q 118 44 10 100 q 297 0 206 0 l 1222 0 l 1222 747 l 971 747 z "},"v":{"ha":1360,"x_min":0,"x_max":1221,"o":"m 968 747 l 968 110 l 639 110 l 249 376 l 249 747 l 0 747 l 0 376 l 557 0 l 1221 0 l 1221 747 l 968 747 z "},"w":{"ha":1751,"x_min":0,"x_max":1613,"o":"m 301 1 l 1613 1 l 1613 749 l 1356 749 l 1356 111 l 933 111 l 933 749 l 675 749 l 675 111 l 386 111 q 294 138 332 111 q 253 219 253 168 l 253 749 l 0 749 l 0 189 q 119 44 10 99 q 301 1 207 1 z "},"x":{"ha":1336,"x_min":0,"x_max":1197,"o":"m 1197 514 l 1197 750 l 944 750 l 944 540 q 900 458 944 489 q 807 432 861 432 l 390 432 q 297 458 336 432 q 253 540 253 489 l 253 750 l 0 750 l 0 514 q 65 407 7 458 q 0 303 7 374 l 0 1 l 253 1 l 253 254 q 281 311 253 297 q 347 321 300 321 l 849 321 q 915 311 897 321 q 944 254 944 297 l 944 1 l 1197 1 l 1197 303 q 1132 407 1189 374 q 1197 514 1190 458 z "},"y":{"ha":1336,"x_min":0,"x_max":1197,"o":"m 949 746 l 949 122 l 340 122 q 250 182 258 131 l 250 746 l 0 746 l 0 106 q 211 -1 38 -1 l 949 -1 l 949 -144 q 797 -251 919 -251 l 168 -251 l 110 -361 l 876 -361 q 1064 -317 968 -361 q 1197 -171 1181 -262 l 1197 746 l 949 746 z "},"z":{"ha":1221,"x_min":0,"x_max":1140,"o":"m 58 749 l 0 639 l 822 639 l 822 538 q 785 458 822 486 q 694 429 747 429 l 190 429 q 0 301 14 429 l 0 0 l 1082 0 l 1140 110 l 254 110 l 254 253 q 324 314 254 300 q 439 321 357 321 l 779 321 q 960 363 874 321 q 1082 507 1069 415 l 1082 749 l 58 749 z "},"{":{"ha":794,"x_min":0,"x_max":718,"o":"m 456 218 l 456 399 l 254 514 l 456 656 l 456 919 l 656 919 l 718 1028 l 201 1028 l 201 660 l 0 517 l 201 399 l 201 192 q 318 44 211 100 q 496 0 404 0 l 656 0 l 718 110 l 582 110 q 494 136 528 110 q 456 218 456 167 z "},"|":{"ha":315,"x_min":0,"x_max":176,"o":"m 0 1028 l 0 0 l 176 0 l 176 1028 l 0 1028 z "},"}":{"ha":756,"x_min":-22,"x_max":696,"o":"m 240 810 l 240 629 l 442 514 l 240 372 l 240 110 l 40 110 l -22 0 l 494 0 l 494 369 l 696 511 l 494 629 l 494 838 q 378 983 483 929 q 199 1028 290 1028 l 40 1028 l -22 919 l 114 919 q 203 890 167 919 q 240 810 240 861 z "},"~":{"ha":689,"x_min":0,"x_max":550,"o":"m 396 903 l 143 1022 l 0 954 l 0 838 l 142 904 l 396 785 l 550 858 l 550 975 l 396 903 z "},"Ä":{"ha":1389,"x_min":0,"x_max":0,"o":""},"Å":{"ha":1389,"x_min":0,"x_max":0,"o":""},"Ç":{"ha":1389,"x_min":0,"x_max":0,"o":""},"É":{"ha":1389,"x_min":0,"x_max":0,"o":""},"Ñ":{"ha":1389,"x_min":0,"x_max":0,"o":""},"Ö":{"ha":1389,"x_min":0,"x_max":0,"o":""},"Ü":{"ha":1389,"x_min":0,"x_max":0,"o":""},"á":{"ha":1389,"x_min":0,"x_max":0,"o":""},"à":{"ha":1389,"x_min":0,"x_max":0,"o":""},"â":{"ha":1389,"x_min":0,"x_max":0,"o":""},"ä":{"ha":1389,"x_min":0,"x_max":0,"o":""},"ã":{"ha":1389,"x_min":0,"x_max":0,"o":""},"å":{"ha":1389,"x_min":0,"x_max":0,"o":""},"ç":{"ha":1389,"x_min":0,"x_max":0,"o":""},"é":{"ha":1389,"x_min":0,"x_max":0,"o":""},"è":{"ha":1389,"x_min":0,"x_max":0,"o":""},"ê":{"ha":1389,"x_min":0,"x_max":0,"o":""},"ë":{"ha":1389,"x_min":0,"x_max":0,"o":""},"í":{"ha":1389,"x_min":0,"x_max":0,"o":""},"ì":{"ha":1389,"x_min":0,"x_max":0,"o":""},"î":{"ha":1389,"x_min":0,"x_max":0,"o":""},"ï":{"ha":1389,"x_min":0,"x_max":0,"o":""},"ñ":{"ha":1389,"x_min":0,"x_max":0,"o":""},"ó":{"ha":1389,"x_min":0,"x_max":0,"o":""},"ò":{"ha":1389,"x_min":0,"x_max":0,"o":""},"ô":{"ha":1389,"x_min":0,"x_max":0,"o":""},"ö":{"ha":1389,"x_min":0,"x_max":0,"o":""},"õ":{"ha":1389,"x_min":0,"x_max":0,"o":""},"ú":{"ha":1389,"x_min":0,"x_max":0,"o":""},"ù":{"ha":1389,"x_min":0,"x_max":0,"o":""},"û":{"ha":1389,"x_min":0,"x_max":0,"o":""},"ü":{"ha":1389,"x_min":0,"x_max":0,"o":""},"†":{"ha":1389,"x_min":0,"x_max":0,"o":""},"°":{"ha":1389,"x_min":0,"x_max":0,"o":""},"¢":{"ha":1389,"x_min":0,"x_max":0,"o":""},"£":{"ha":1389,"x_min":0,"x_max":0,"o":""},"§":{"ha":1389,"x_min":0,"x_max":0,"o":""},"•":{"ha":1389,"x_min":0,"x_max":0,"o":""},"¶":{"ha":1389,"x_min":0,"x_max":0,"o":""},"ß":{"ha":1389,"x_min":0,"x_max":0,"o":""},"®":{"ha":1389,"x_min":0,"x_max":0,"o":""},"©":{"ha":1389,"x_min":0,"x_max":0,"o":""},"™":{"ha":1389,"x_min":0,"x_max":0,"o":""},"´":{"ha":1389,"x_min":0,"x_max":0,"o":""},"¨":{"ha":1389,"x_min":0,"x_max":0,"o":""},"Æ":{"ha":1389,"x_min":0,"x_max":0,"o":""},"Ø":{"ha":1389,"x_min":0,"x_max":0,"o":""},"±":{"ha":1389,"x_min":0,"x_max":0,"o":""},"¥":{"ha":1389,"x_min":0,"x_max":0,"o":""},"µ":{"ha":1389,"x_min":0,"x_max":0,"o":""},"μ":{"ha":1389,"x_min":0,"x_max":0,"o":""},"ª":{"ha":1389,"x_min":0,"x_max":0,"o":""},"º":{"ha":1389,"x_min":0,"x_max":0,"o":""},"æ":{"ha":1389,"x_min":0,"x_max":0,"o":""},"ø":{"ha":1389,"x_min":0,"x_max":0,"o":""},"¿":{"ha":1389,"x_min":0,"x_max":0,"o":""},"¡":{"ha":1389,"x_min":0,"x_max":0,"o":""},"¬":{"ha":1389,"x_min":0,"x_max":0,"o":""},"ƒ":{"ha":1389,"x_min":0,"x_max":0,"o":""},"«":{"ha":1389,"x_min":0,"x_max":0,"o":""},"»":{"ha":1389,"x_min":0,"x_max":0,"o":""},"…":{"ha":1389,"x_min":0,"x_max":0,"o":""},"À":{"ha":1389,"x_min":0,"x_max":0,"o":""},"Ã":{"ha":1389,"x_min":0,"x_max":0,"o":""},"Õ":{"ha":1389,"x_min":0,"x_max":0,"o":""},"Œ":{"ha":1389,"x_min":0,"x_max":0,"o":""},"œ":{"ha":1389,"x_min":0,"x_max":0,"o":""},"–":{"ha":1389,"x_min":0,"x_max":0,"o":""},"—":{"ha":1389,"x_min":0,"x_max":0,"o":""},"“":{"ha":1389,"x_min":0,"x_max":0,"o":""},"”":{"ha":1389,"x_min":0,"x_max":0,"o":""},"‘":{"ha":1389,"x_min":0,"x_max":0,"o":""},"’":{"ha":1389,"x_min":0,"x_max":0,"o":""},"÷":{"ha":1389,"x_min":0,"x_max":0,"o":""},"ÿ":{"ha":1389,"x_min":0,"x_max":0,"o":""},"Ÿ":{"ha":1389,"x_min":0,"x_max":0,"o":""},"¤":{"ha":1389,"x_min":0,"x_max":0,"o":""},"‹":{"ha":1389,"x_min":0,"x_max":0,"o":""},"›":{"ha":1389,"x_min":0,"x_max":0,"o":""},"‡":{"ha":1389,"x_min":0,"x_max":0,"o":""},"·":{"ha":1389,"x_min":0,"x_max":0,"o":""},"∙":{"ha":1389,"x_min":0,"x_max":0,"o":""},"‚":{"ha":1389,"x_min":0,"x_max":0,"o":""},"„":{"ha":1389,"x_min":0,"x_max":0,"o":""},"‰":{"ha":1389,"x_min":0,"x_max":0,"o":""},"Â":{"ha":1389,"x_min":0,"x_max":0,"o":""},"Ê":{"ha":1389,"x_min":0,"x_max":0,"o":""},"Á":{"ha":1389,"x_min":0,"x_max":0,"o":""},"Ë":{"ha":1389,"x_min":0,"x_max":0,"o":""},"È":{"ha":1389,"x_min":0,"x_max":0,"o":""},"Í":{"ha":1389,"x_min":0,"x_max":0,"o":""},"Î":{"ha":1389,"x_min":0,"x_max":0,"o":""},"Ï":{"ha":1389,"x_min":0,"x_max":0,"o":""},"Ì":{"ha":1389,"x_min":0,"x_max":0,"o":""},"Ó":{"ha":1389,"x_min":0,"x_max":0,"o":""},"Ô":{"ha":1389,"x_min":0,"x_max":0,"o":""},"Ò":{"ha":1389,"x_min":0,"x_max":0,"o":""},"Ú":{"ha":1389,"x_min":0,"x_max":0,"o":""},"Û":{"ha":1389,"x_min":0,"x_max":0,"o":""},"Ù":{"ha":1389,"x_min":0,"x_max":0,"o":""},"ˆ":{"ha":1389,"x_min":0,"x_max":0,"o":""},"˜":{"ha":1389,"x_min":0,"x_max":0,"o":""},"¯":{"ha":1389,"x_min":0,"x_max":0,"o":""},"ˉ":{"ha":1389,"x_min":0,"x_max":0,"o":""},"¸":{"ha":1389,"x_min":0,"x_max":0,"o":""},"≠":{"ha":1389,"x_min":0,"x_max":0,"o":""},"∞":{"ha":1389,"x_min":0,"x_max":0,"o":""},"≤":{"ha":1389,"x_min":0,"x_max":0,"o":""},"≥":{"ha":1389,"x_min":0,"x_max":0,"o":""},"∂":{"ha":1389,"x_min":0,"x_max":0,"o":""},"∑":{"ha":1389,"x_min":0,"x_max":0,"o":""},"∏":{"ha":1389,"x_min":0,"x_max":0,"o":""},"π":{"ha":1389,"x_min":0,"x_max":0,"o":""},"Ω":{"ha":1389,"x_min":0,"x_max":0,"o":""},"Ω":{"ha":1389,"x_min":0,"x_max":0,"o":""},"√":{"ha":1389,"x_min":0,"x_max":0,"o":""},"≈":{"ha":1389,"x_min":0,"x_max":0,"o":""},"⋲":{"ha":1389,"x_min":0,"x_max":0,"o":""},"Δ":{"ha":1389,"x_min":0,"x_max":0,"o":""},"∆":{"ha":1389,"x_min":0,"x_max":0,"o":""},"◊":{"ha":1389,"x_min":0,"x_max":0,"o":""},"⁄":{"ha":1389,"x_min":0,"x_max":0,"o":""},"":{"ha":1389,"x_min":0,"x_max":0,"o":""},"":{"ha":1389,"x_min":0,"x_max":0,"o":""},"ı":{"ha":1389,"x_min":0,"x_max":0,"o":""},"˘":{"ha":1389,"x_min":0,"x_max":0,"o":""},"˙":{"ha":1389,"x_min":0,"x_max":0,"o":""},"˚":{"ha":1389,"x_min":0,"x_max":0,"o":""},"˝":{"ha":1389,"x_min":0,"x_max":0,"o":""},"˛":{"ha":1389,"x_min":0,"x_max":0,"o":""},"ˇ":{"ha":1389,"x_min":0,"x_max":0,"o":""}}}
